# AST/ASF file generated using VICON BodyLanguage
# -----------------------------------------------
:version 1.10
:name VICON
:units
  mass 1.0
  length 0.45
  angle deg
:documentation
   .ast/.asf automatically generated from VICON data using
   VICON BodyBuilder and BodyLanguage model FoxedUp or BRILLIANT.MOD
:root
   order TX TY TZ RX RY RZ
   axis XYZ
   position 0 0 0  
   orientation 0 0 0 
:bonedata
  begin
     id 1 
     name lhipjoint
     direction 0.623529 -0.717805 0.309788 
     length 2.23224 
     axis 0 0 0  XYZ
  end
  begin
     id 2 
     name lfemur
     direction 0.34202 -0.939693 0  
     length 7.11402  
     axis 0 0 20  XYZ
    dof rx ry rz
    limits (-160.0 20.0)
           (-70.0 70.0)
           (-60.0 70.0)
  end
  begin
     id 3 
     name ltibia
     direction 0.34202 -0.939693 0   
     length 6.78496   
     axis 0 0 20   XYZ
    dof rx
    limits (-10.0 170.0)
  end
  begin
     id 4 
     name lfoot
     direction 0.125078 -0.343648 0.930732   
     length 1.84054   
     axis -90 7.62852e-016 20   XYZ
    dof rx rz
    limits (-45.0 90.0)
           (-70.0 20.0)
  end
  begin
     id 5 
     name ltoes
     direction 1.53565e-011 -4.21893e-011 1   
     length 0.916474   
     axis -90 7.62852e-016 20   XYZ
    dof rx
    limits (-90.0 20.0)
  end
  begin
     id 6 
     name rhipjoint
     direction -0.564688 -0.757748 0.327026   
     length 2.11457  
     axis 0 0 0  XYZ 
  end
  begin
     id 7 
     name rfemur
     direction -0.34202 -0.939693 0   
     length 7.14609   
     axis 0 0 -20   XYZ
    dof rx ry rz
    limits (-160.0 20.0)
           (-70.0 70.0)
           (-70.0 60.0)
  end
  begin
     id 8 
     name rtibia
     direction -0.34202 -0.939693 0   
     length 6.78101   
     axis 0 0 -20   XYZ
    dof rx
    limits (-10.0 170.0)
 end
 begin
     id 9 
     name rfoot
     direction -0.0992671 -0.272734 0.956955   
     length 1.96168  
     axis -90 -7.62852e-016 -20   XYZ
    dof rx rz
    limits (-45.0 90.0)
           (-20.0 70.0)
  end
  begin
     id 10 
     name rtoes
     direction -1.5356e-011 -4.21891e-011 1   
     length 0.982933   
     axis -90 -7.62852e-016 -20   XYZ
    dof rx
    limits (-90.0 20.0)
  end
  begin
     id 11 
     name lowerback
     direction -0.00596953 0.998668 0.0512524   
     length 1.87557   
     axis 0 0 0   XYZ
    dof rx ry rz
    limits (-20.0 45.0)
           (-30.0 30.0)
           (-30.0 30.0)
  end
  begin
     id 12 
     name upperback
     direction 0.00584879 0.999652 0.0257308   
     length 1.87883   
     axis 0 0 0   XYZ
    dof rx ry rz
    limits (-20.0 45.0)
           (-30.0 30.0)
           (-30.0 30.0)
  end
  begin
     id 13 
     name thorax
     direction 0.010104 0.999947 0.00178881   
     length 1.87779   
     axis 0 0 0   XYZ
    dof rx ry rz
    limits (-20.0 45.0)
           (-30.0 30.0)
           (-30.0 30.0)
  end
  begin
     id 14 
     name lowerneck
     direction 0.0120771 0.995934 -0.0892773   
     length 1.40897   
     axis 0 0 0   XYZ
    dof rx ry rz
    limits (-20.0 45.0)
           (-30.0 30.0)
           (-30.0 30.0)
  end
  begin
     id 15 
     name upperneck
     direction -0.030568 0.999465 -0.0116366   
     length 1.38661   
     axis 0 0 0   XYZ
    dof rx ry rz
    limits (-20.0 45.0)
           (-30.0 30.0)
           (-30.0 30.0)
  end
  begin
     id 16
     name head
     direction -0.0170715 0.999854 -0.00104426  
     length 1.47052  
     axis 0 0 0   XYZ
    dof rx ry rz
    limits (-20.0 45.0)
           (-30.0 30.0)
           (-30.0 30.0)
  end
  begin
     id 17 
     name lclavicle
     direction 0.977763 0.206143 0.038532  
     length 3.02424  
     axis 0 0 0   XYZ
    dof ry rz
    limits (-20.0 10.0)
           (0.0 20.0)
  end
  begin
     id 18 
     name lhumerus
     direction 1 -4.48965e-011 -2.62654e-027   
     length 4.68382   
     axis 180 -30 -90   XYZ
    dof rx ry rz
    limits (-60.0 90.0)
           (-90.0 90.0)
           (-90.0 90.0)
  end
  begin
     id 19
     name lradius
     direction 1 -4.48973e-011 -1.54954e-027   
     length 2.98124   
     axis 180 -30 -90   XYZ
    dof rx
    limits (-10.0 170.0)
  end
  begin
     id 20
     name lwrist
     direction 1 -4.48959e-011 7.20928e-028   
     length 1.49062   
     axis -5.52449e-016 90 90   XYZ
    dof ry
    limits (-180.0 0.0)
 end
  begin
     id 21 
     name lhand
     direction 1 -4.48971e-011 1.44186e-027   
     length 0.707595   
     axis -9.20027e-016 90 90   XYZ
    dof rx rz
    limits (-90.0 90.0)
           (-45.0 45.0)
  end
  begin
     id 22 
     name lfingers
     direction 1 -4.48985e-011 2.88371e-027   
     length 0.570481   
     axis -1.84005e-015 90 90   XYZ
    dof rx
    limits (0.0 90.0)
  end
  begin
     id 23
     name lthumb
     direction 0.707107 -6.34929e-011 0.707107   
     length 0.819101   
     axis -90 45 2.85299e-015   XYZ
    dof rx rz
    limits (-45.0 45.0)
           (-45.0 45.0)
  end
  begin
     id 24 
     name rclavicle
     direction -0.958661 0.284411 -0.00895327   
     length 3.11921  
     axis 0 0 0   XYZ 
    dof ry rz
    limits (-10.0 20.0)
           (-20.0 0.0)
  end
  begin
     id 25 
     name rhumerus
     direction -1 -4.48963e-011 -4.22193e-027  
     length 4.75876   
     axis 180 30 90   XYZ
    dof rx ry rz
    limits (-90.0 60.0)
           (-90.0 90.0)
           (-90.0 90.0)
  end
  begin
     id 26 
     name rradius
     direction -1 -4.48968e-011 -1.07616e-027   
     length 2.93293   
     axis 180 30 90   XYZ
    dof rx
    limits (-10.0 170.0)
  end
  begin
     id 27 
     name rwrist
     direction -1 -4.48965e-011 7.20928e-028   
     length 1.46647   
     axis -5.52449e-016 -90 -90   XYZ
    dof ry
    limits (-180.0 0.0)
  end
  begin
     id 28
     name rhand
     direction -1 -4.48971e-011 1.44186e-027   
     length 0.831748   
     axis -9.20027e-016 -90 -90   XYZ
    dof rx rz
    limits (-90.0 90.0)
           (-45.0 45.0)
  end
  begin
     id 29
     name rfingers
     direction -1 -4.48961e-011 2.88371e-027   
     length 0.670577   
     axis -1.84005e-015 -90 -90   XYZ
    dof rx
    limits (0.0 90.0)
  end
  begin
     id 30
     name rthumb
     direction -0.707107 -6.34929e-011 0.707107   
     length 0.962818   
     axis -90 -45 -2.85299e-015   XYZ
    dof rx rz
    limits (-45.0 45.0)
           (-45.0 45.0)
  end
:hierarchy
  begin
    root lhipjoint rhipjoint lowerback
    lhipjoint lfemur
    lfemur ltibia
    ltibia lfoot
    lfoot ltoes
    rhipjoint rfemur
    rfemur rtibia
    rtibia rfoot
    rfoot rtoes
    lowerback upperback
    upperback thorax
    thorax lowerneck lclavicle rclavicle
    lowerneck upperneck
    upperneck head
    lclavicle lhumerus
    lhumerus lradius
    lradius lwrist
    lwrist lhand lthumb
    lhand lfingers
    rclavicle rhumerus
    rhumerus rradius
    rradius rwrist
    rwrist rhand rthumb
    rhand rfingers
  end

#!OML:ASF E:\id_vita\Project 1\Capture day 1\Session 1\Female.ASF
:FULLY-SPECIFIED
:DEGREES
171
root -11.8011 15.9804 0.301892 361.863 80.4777 343.317
lowerback -14.6394 3.31605 -2.29139
upperback -3.31787 4.89115 -0.360459
thorax 4.51067 2.45255 1.79936
lowerneck 1.41203 -0.840189 -3.88164
upperneck 12.0017 -1.38013 6.12418
head 3.76913 -0.510752 2.71545
rclavicle -1.85615e-014 -1.90833e-014
rhumerus -14.851 -7.56994 -91.7264
rradius 35.2571
rwrist 2.61188
rhand -17.3562 9.80292
rfingers 7.12502
rthumb 8.8916 -19.9897
lclavicle -1.85615e-014 -1.90833e-014
lhumerus -125.413 32.5104 -49.4238
lradius 12.9693
lwrist -119.809
lhand -3.71037 27.8552
lfingers 7.12502
lthumb 22.0321 56.6202
rfemur 4.35528 3.65904 26.104
rtibia 14.5457
rfoot -8.49362 9.80246
rtoes -11.445
lfemur -49.6108 -4.50005 -17.324
ltibia 28.0175
lfoot -9.5001 10.2158
ltoes -9.17212
172
root -11.61 15.9888 0.297918 365.064 80.9097 346.414
lowerback -14.8563 3.04376 -2.7932
upperback -3.28406 4.6247 -0.526847
thorax 4.64982 2.31325 1.87448
lowerneck 1.21447 -0.945722 -3.65672
upperneck 12.0465 -1.50547 5.8836
head 3.82169 -0.570476 2.5881
rclavicle 4.5969e-015 5.56597e-015
rhumerus -15.6863 -7.3984 -91.7872
rradius 35.2672
rwrist 2.61105
rhand -17.61 9.44985
rfingers 7.12502
rthumb 8.64669 -20.3531
lclavicle 4.5969e-015 5.56597e-015
lhumerus -124.734 34.2284 -47.4556
lradius 12.7123
lwrist -117.718
lhand -4.01355 27.808
lfingers 7.12502
lthumb 21.7409 56.6071
rfemur 3.78635 2.6919 25.262
rtibia 16.3647
rfoot -7.41202 11.0027
rtoes -10.8215
lfemur -49.6339 -4.40503 -18.4959
ltibia 29.1857
lfoot -9.9578 9.14251
ltoes -8.93454
173
root -11.4183 15.9977 0.298611 367.688 81.1801 349.073
lowerback -14.9634 2.89061 -3.28052
upperback -3.20798 4.50861 -0.646154
thorax 4.76615 2.24664 2.01078
lowerneck 1.34801 -1.01547 -3.61796
upperneck 11.7885 -1.60778 5.97299
head 3.71169 -0.622213 2.60376
rclavicle 1.9133e-014 3.18055e-015
rhumerus -16.6835 -7.35043 -91.7164
rradius 35.3455
rwrist 2.55309
rhand -17.699 9.2259
rfingers 7.12502
rthumb 8.56079 -20.5805
lclavicle 1.9133e-014 3.18055e-015
lhumerus -124.12 35.9826 -45.6435
lradius 12.5459
lwrist -115.942
lhand -4.30543 27.8675
lfingers 7.12502
lthumb 21.4606 56.6988
rfemur 3.18729 1.67111 24.4715
rtibia 18.3569
rfoot -5.85842 12.4838
rtoes -6.42343
lfemur -49.4476 -4.30381 -19.4072
ltibia 30.1639
lfoot -10.1238 8.20419
ltoes -8.60991
174
root -11.2281 16.002 0.3055 369.312 81.4487 350.832
lowerback -15.0306 2.78988 -3.62813
upperback -3.048 4.43638 -0.722041
thorax 4.95563 2.19795 2.12284
lowerneck 1.27298 -1.09275 -3.65545
upperneck 11.7106 -1.72108 6.08955
head 3.70821 -0.676623 2.64712
rclavicle -4.63168e-014 5.56597e-015
rhumerus -17.4453 -7.46298 -91.5972
rradius 35.167
rwrist 2.4527
rhand -17.5034 9.52401
rfingers 7.12502
rthumb 8.74956 -20.2746
lclavicle -4.63168e-014 5.56597e-015
lhumerus -122.708 38.3952 -42.6138
lradius 12.3794
lwrist -113.081
lhand -4.2297 27.9609
lfingers 7.12502
lthumb 21.5334 56.7838
rfemur 2.61631 0.736134 23.8942
rtibia 20.4302
rfoot -3.86521 13.8648
rtoes -1.71136
lfemur -49.1371 -4.19254 -20.0778
ltibia 30.9666
lfoot -10.5229 7.05056
ltoes -7.46835
175
root -11.0418 16.008 0.313619 370.356 81.7202 352.009
lowerback -15.0585 2.67112 -3.81928
upperback -2.88527 4.31498 -0.799039
thorax 5.14234 2.12641 2.13472
lowerneck 1.19602 -1.11952 -3.71518
upperneck 11.6488 -1.77129 6.26594
head 3.70891 -0.69814 2.71755
rclavicle -3.2551e-014 9.14409e-015
rhumerus -18.047 -7.62238 -91.5615
rradius 34.7827
rwrist 2.36394
rhand -17.2646 9.76094
rfingers 7.12502
rthumb 8.98 -20.0279
lclavicle -3.2551e-014 9.14409e-015
lhumerus -120.996 40.8668 -39.3651
lradius 12.1975
lwrist -110.012
lhand -4.29916 27.786
lfingers 7.12502
lthumb 21.4667 56.6165
rfemur 2.07064 -0.222922 23.4638
rtibia 22.4981
rfoot -1.90082 15.0657
rtoes -0.888883
lfemur -48.7366 -3.99647 -20.6723
ltibia 31.6458
lfoot -11.0112 5.74258
ltoes -6.58418
176
root -10.8577 16.0185 0.320068 370.911 81.9655 352.673
lowerback -15.0476 2.58173 -3.92178
upperback -2.78037 4.2158 -0.85369
thorax 5.25044 2.07055 2.11966
lowerneck 1.2728 -1.14135 -3.69621
upperneck 11.5456 -1.80911 6.36903
head 3.66199 -0.71475 2.74677
rclavicle -4.42296e-014 7.95139e-016
rhumerus -18.7987 -7.9018 -91.4541
rradius 34.385
rwrist 2.48392
rhand -17.1429 9.90879
rfingers 7.12502
rthumb 9.09744 -19.875
lclavicle -4.42296e-014 7.95139e-016
lhumerus -118.852 43.2528 -35.7594
lradius 12.0143
lwrist -106.957
lhand -4.27403 27.682
lfingers 7.12502
lthumb 21.4908 56.5098
rfemur 1.42069 -1.17421 23.0971
rtibia 24.6062
rfoot 0.670536 16.1818
rtoes 0.817011
lfemur -48.262 -3.67212 -21.2524
ltibia 32.2659
lfoot -11.5407 4.61068
ltoes -6.08793
177
root -10.6767 16.029 0.323616 371.072 82.3124 352.941
lowerback -14.9863 2.46969 -3.92761
upperback -2.68942 4.06561 -0.859881
thorax 5.32259 1.99209 2.08851
lowerneck 1.2376 -1.14202 -3.72907
upperneck 11.5389 -1.81306 6.4112
head 3.66812 -0.716476 2.76755
rclavicle -3.70236e-014 -5.96354e-015
rhumerus -19.6424 -8.40383 -91.2695
rradius 33.9211
rwrist 3.04192
rhand -17.0795 10.2836
rfingers 7.12502
rthumb 9.15861 -19.4976
lclavicle -3.70236e-014 -5.96354e-015
lhumerus -115.209 45.9396 -30.2028
lradius 11.8359
lwrist -102.8
lhand -4.00517 27.9538
lfingers 7.12502
lthumb 21.749 56.7519
rfemur 0.695411 -2.0613 22.8157
rtibia 26.8151
rfoot 3.88769 16.8894
rtoes 5.76462
lfemur -47.7738 -3.41391 -21.7656
ltibia 32.8681
lfoot -12.1887 3.61585
ltoes -4.46281
178
root -10.5 16.0403 0.326046 371.07 82.6624 353.042
lowerback -13.7623 2.36453 -3.96322
upperback -3.37362 3.86897 -0.867741
thorax 3.94243 1.94879 1.97285
lowerneck 1.40584 -1.17987 -3.64494
upperneck 12.2701 -1.85633 6.27103
head 3.89369 -0.722801 2.71494
rclavicle -6.72389e-014 -7.55382e-015
rhumerus -21.7014 -9.10359 -90.9549
rradius 33.5516
rwrist 3.77821
rhand -17.0894 10.5558
rfingers 7.12502
rthumb 9.14907 -19.2257
lclavicle -6.72389e-014 -7.55382e-015
lhumerus -107.941 47.8942 -20.5094
lradius 11.7684
lwrist -96.5089
lhand -3.99384 28.1563
lfingers 7.12502
lthumb 21.7599 56.9532
rfemur -0.136721 -2.8962 22.6096
rtibia 29.1507
rfoot 6.05703 16.6669
rtoes 4.98965
lfemur -47.2829 -3.19825 -22.204
ltibia 33.454
lfoot -12.9525 2.67112
ltoes -1.9029
179
root -10.3242 16.0514 0.325538 370.752 82.9134 352.752
lowerback -13.5891 2.18457 -4.14884
upperback -3.45962 3.63573 -0.629823
thorax 3.74355 1.83924 2.27568
lowerneck 1.46995 -1.16532 -3.66402
upperneck 12.5313 -1.80533 5.92409
head 3.96458 -0.707476 2.6032
rclavicle -2.40529e-014 1.66979e-014
rhumerus -22.7141 -9.30222 -90.5137
rradius 33.0536
rwrist 4.26648
rhand -17.0104 10.3219
rfingers 7.12502
rthumb 9.22532 -19.4563
lclavicle -2.40529e-014 1.66979e-014
lhumerus -102.248 49.7081 -12.2799
lradius 11.8184
lwrist -91.2308
lhand -4.23553 28.2372
lfingers 7.12502
lthumb 21.5278 57.0608
rfemur -1.19007 -3.67669 22.4495
rtibia 31.5951
rfoot 7.80553 17.0882
rtoes 1.89718
lfemur -46.8283 -3.02213 -22.5103
ltibia 33.9897
lfoot -13.72 2.01009
ltoes -0.172749
180
root -10.1511 16.0609 0.321924 369.903 83.1289 351.876
lowerback -12.9328 2.15515 -4.05311
upperback -3.89658 3.54939 -0.563202
thorax 2.93569 1.82964 2.22931
lowerneck 1.61351 -1.18596 -3.64009
upperneck 12.9906 -1.82521 5.85401
head 4.10146 -0.708405 2.58194
rclavicle -8.12532e-015 -7.95139e-015
rhumerus -24.2463 -10.0076 -90.0493
rradius 32.7319
rwrist 4.58657
rhand -16.7704 9.74246
rfingers 7.12502
rthumb 9.45686 -20.0254
lclavicle -8.12532e-015 -7.95139e-015
lhumerus -94.6685 50.634 -2.28984
lradius 11.8529
lwrist -85.5357
lhand -4.5482 28.2074
lfingers 7.12502
lthumb 21.2275 57.0651
rfemur -2.2649 -4.00231 22.3855
rtibia 34.1336
rfoot 9.9394 16.9075
rtoes 1.17008
lfemur -46.369 -2.95495 -22.6556
ltibia 34.4231
lfoot -14.3785 1.77697
ltoes 0.0576579
181
root -9.97632 16.0736 0.317082 369.352 83.3136 351.367
lowerback -13.2072 2.14043 -3.63929
upperback -3.64513 3.4936 -0.707298
thorax 3.38686 1.7845 1.86223
lowerneck 1.44174 -1.16023 -3.50257
upperneck 12.9441 -1.79966 5.91689
head 4.11491 -0.686643 2.57893
rclavicle 5.37216e-014 1.23246e-014
rhumerus -24.6203 -11.0679 -89.9457
rradius 32.1588
rwrist 4.92692
rhand -16.1529 9.31777
rfingers 7.12502
rthumb 10.0527 -20.4221
lclavicle 5.37216e-014 1.23246e-014
lhumerus -86.1203 51.6606 8.41195
lradius 12.0221
lwrist -79.673
lhand -4.9177 27.9252
lfingers 7.12502
lthumb 20.8725 56.8224
rfemur -3.25289 -4.00609 22.2589
rtibia 36.7514
rfoot 11.7687 16.716
rtoes 0.570238
lfemur -45.736 -2.99304 -22.7992
ltibia 34.7206
lfoot -15.1167 1.81823
ltoes 0.347465
